<?xml version="1.0" encoding="utf-8"?>
<!-- Generator: Adobe Illustrator 21.0.2, SVG Export Plug-In . SVG Version: 6.00 Build 0)  -->
<svg version="1.1" id="Laag_1" xmlns="http://www.w3.org/2000/svg" xmlns:xlink="http://www.w3.org/1999/xlink" x="0px" y="0px"
	 viewBox="0 0 180 180" style="enable-background:new 0 0 180 180;" xml:space="preserve">
<style type="text/css">
	.st0{fill:#FFFFFF;}
</style>
<path class="st0" d="M90,22.5c-37.3,0-67.5,30.2-67.5,67.5s30.2,67.5,67.5,67.5s67.5-30.2,67.5-67.5S127.3,22.5,90,22.5z
	 M90.6,146.3c-31.1,0-56.3-25.2-56.3-56.3s25.2-56.2,56.3-56.2s56.3,25.2,56.3,56.2S121.7,146.3,90.6,146.3z"/>
<path class="st0" d="M90,45c-24.9,0-45,20.1-45,45c0,24.9,20.1,45,45,45s45-20.1,45-45C135,65.1,114.9,45,90,45z M90,123.8
	c-18.6,0-33.8-15.1-33.8-33.8S71.4,56.3,90,56.3s33.7,15.1,33.7,33.7S108.6,123.8,90,123.8z"/>
<path class="st0" d="M0,90c0,49.7,40.3,90,90,90h61.3c0,0,28.8,0.6,28.8-28.1V90c0-49.7-40.3-90-90-90S0,40.3,0,90z M168.8,90
	c0,43.5-35.3,78.8-78.8,78.8S11.3,133.5,11.3,90S46.5,11.3,90,11.3S168.8,46.5,168.8,90z"/>
</svg>
